<svg width="260" height="260" viewBox="0 0 260 260" fill="none" xmlns="http://www.w3.org/2000/svg">
<path d="M210 0H50C22.3858 0 0 22.3858 0 50V210C0 237.614 22.3858 260 50 260H210C237.614 260 260 237.614 260 210V50C260 22.3858 237.614 0 210 0Z" fill="#022B3A"/>
<path d="M212.773 81.6563L178.648 113.75L211.148 203.125L186.773 227.5L138.227 156.406L113.648 178.75V203.125L89.2734 227.5L74.8516 184.945L32.3984 170.625L56.7734 146.25H81.1484L105.523 121.875L32.3984 73.125L56.7734 48.75L146.148 81.25L178.344 47.2266L177.633 47.7344C182.212 43.1553 188.423 40.5828 194.898 40.5828C201.374 40.5828 207.585 43.1553 212.164 47.7344C216.743 52.3135 219.316 58.5242 219.316 65C219.316 71.4759 216.743 77.6865 212.164 82.2657L212.773 81.6563Z" stroke="#1F7A8C" stroke-width="12" stroke-linecap="round" stroke-linejoin="round"/>
</svg>
